solid OpenSCAD_Model
  facet normal -0.866032 -3.06155e-17 -0.499989
    outer loop
      vertex -1.5 0 0
      vertex -1.5 -120 7.34788e-15
      vertex -11.5 1.06061e-15 17.321
    endloop
  endfacet
  facet normal -0.866032 -2.96053e-17 -0.499989
    outer loop
      vertex -11.5 1.06061e-15 17.321
      vertex -1.5 -120 7.34788e-15
      vertex -11.5 -120 17.321
    endloop
  endfacet
  facet normal 0 1 -6.12323e-17
    outer loop
      vertex 11.5 1.06061e-15 17.321
      vertex 1.5 0 0
      vertex -11.5 1.06061e-15 17.321
    endloop
  endfacet
  facet normal 0 1 -6.12323e-17
    outer loop
      vertex -11.5 1.06061e-15 17.321
      vertex 1.5 0 0
      vertex -1.5 0 0
    endloop
  endfacet
  facet normal 0 5.92119e-17 1
    outer loop
      vertex -11.5 1.06061e-15 17.321
      vertex -11.5 -120 17.321
      vertex 11.5 -120 17.321
    endloop
  endfacet
  facet normal -0 5.92119e-17 1
    outer loop
      vertex 11.5 1.06061e-15 17.321
      vertex -11.5 1.06061e-15 17.321
      vertex 11.5 -120 17.321
    endloop
  endfacet
  facet normal 0 -1 8.20441e-16
    outer loop
      vertex -11.5 -120 17.321
      vertex -1.5 -120 7.34788e-15
      vertex 1.5 -120 7.34788e-15
    endloop
  endfacet
  facet normal 0 -1 8.20441e-16
    outer loop
      vertex 11.5 -120 17.321
      vertex -11.5 -120 17.321
      vertex 1.5 -120 7.34788e-15
    endloop
  endfacet
  facet normal 0 -6.12323e-17 -1
    outer loop
      vertex 1.5 0 0
      vertex 1.5 -120 7.34788e-15
      vertex -1.5 0 0
    endloop
  endfacet
  facet normal 0 -6.12323e-17 -1
    outer loop
      vertex -1.5 0 0
      vertex 1.5 -120 7.34788e-15
      vertex -1.5 -120 7.34788e-15
    endloop
  endfacet
  facet normal 0.866032 -3.12244e-17 -0.499989
    outer loop
      vertex 1.5 0 0
      vertex 11.5 1.06061e-15 17.321
      vertex 11.5 -120 17.321
    endloop
  endfacet
  facet normal 0.866032 -3.06155e-17 -0.499989
    outer loop
      vertex 1.5 -120 7.34788e-15
      vertex 1.5 0 0
      vertex 11.5 -120 17.321
    endloop
  endfacet
endsolid OpenSCAD_Model
